<mxfile host="app.diagrams.net" modified="2022-05-23T12:18:11.098Z" agent="5.0 (Windows NT 10.0; Win64; x64) AppleWebKit/537.36 (KHTML, like Gecko) Chrome/101.0.4951.67 Safari/537.36" etag="AutxpoPNGEy7hdccv537" version="17.4.6" type="github">
  <diagram id="oGBQtBU7tLhUjzKd6-vA" name="Page-1">
    <mxGraphModel dx="1021" dy="579" grid="1" gridSize="10" guides="1" tooltips="1" connect="1" arrows="1" fold="1" page="1" pageScale="1" pageWidth="850" pageHeight="1100" math="0" shadow="0">
      <root>
        <mxCell id="0" />
        <mxCell id="1" parent="0" />
        <mxCell id="1yVf_4KeCka6JtIryi8p-1" value="activity diagram admin melihat statistik sales" style="shape=umlFrame;whiteSpace=wrap;html=1;width=210;height=30;" vertex="1" parent="1">
          <mxGeometry x="130" y="40" width="670" height="600" as="geometry" />
        </mxCell>
        <mxCell id="1yVf_4KeCka6JtIryi8p-2" value="Admin" style="swimlane;" vertex="1" parent="1">
          <mxGeometry x="240" y="80" width="210" height="520" as="geometry" />
        </mxCell>
        <mxCell id="1yVf_4KeCka6JtIryi8p-3" value="System" style="swimlane;startSize=23;" vertex="1" parent="1">
          <mxGeometry x="450" y="80" width="220" height="520" as="geometry" />
        </mxCell>
        <mxCell id="1yVf_4KeCka6JtIryi8p-4" value="Menampilkan total produk yang terjual" style="rounded=1;whiteSpace=wrap;html=1;fontSize=8;" vertex="1" parent="1yVf_4KeCka6JtIryi8p-3">
          <mxGeometry x="51.25" y="390" width="117.5" height="45" as="geometry" />
        </mxCell>
        <mxCell id="1yVf_4KeCka6JtIryi8p-5" value="" style="ellipse;html=1;shape=endState;fillColor=#000000;strokeColor=#000000;fontSize=8;" vertex="1" parent="1yVf_4KeCka6JtIryi8p-3">
          <mxGeometry x="95" y="470" width="30" height="30" as="geometry" />
        </mxCell>
        <mxCell id="1yVf_4KeCka6JtIryi8p-6" value="" style="endArrow=open;endFill=1;endSize=12;html=1;rounded=0;fontSize=9;" edge="1" parent="1yVf_4KeCka6JtIryi8p-3" source="1yVf_4KeCka6JtIryi8p-4" target="1yVf_4KeCka6JtIryi8p-5">
          <mxGeometry width="160" relative="1" as="geometry">
            <mxPoint x="-81.11111111111109" y="405" as="sourcePoint" />
            <mxPoint x="61.25" y="422.6461442786069" as="targetPoint" />
            <Array as="points" />
          </mxGeometry>
        </mxCell>
        <mxCell id="1yVf_4KeCka6JtIryi8p-7" value="&lt;font style=&quot;font-size: 9px&quot;&gt;Finish&lt;/font&gt;" style="text;html=1;strokeColor=none;fillColor=none;align=center;verticalAlign=middle;whiteSpace=wrap;rounded=0;" vertex="1" parent="1yVf_4KeCka6JtIryi8p-3">
          <mxGeometry x="80" y="490" width="60" height="30" as="geometry" />
        </mxCell>
        <mxCell id="1yVf_4KeCka6JtIryi8p-13" value="&lt;font style=&quot;font-size: 6px&quot;&gt;system check apakah data tersebut ada di database ?&amp;nbsp;&lt;/font&gt;" style="text;html=1;strokeColor=none;fillColor=none;align=center;verticalAlign=middle;whiteSpace=wrap;rounded=0;" vertex="1" parent="1yVf_4KeCka6JtIryi8p-3">
          <mxGeometry x="140" y="120" width="70" height="30" as="geometry" />
        </mxCell>
        <mxCell id="1yVf_4KeCka6JtIryi8p-8" value="" style="ellipse;html=1;shape=startState;fillColor=#000000;strokeColor=#000000;" vertex="1" parent="1">
          <mxGeometry x="270" y="130" width="30" height="30" as="geometry" />
        </mxCell>
        <mxCell id="1yVf_4KeCka6JtIryi8p-9" value="&lt;font style=&quot;font-size: 9px&quot;&gt;start&lt;/font&gt;" style="text;html=1;strokeColor=none;fillColor=none;align=center;verticalAlign=middle;whiteSpace=wrap;rounded=0;" vertex="1" parent="1">
          <mxGeometry x="255" y="150" width="60" height="30" as="geometry" />
        </mxCell>
        <mxCell id="1yVf_4KeCka6JtIryi8p-10" value="" style="endArrow=open;endFill=1;endSize=12;html=1;rounded=0;fontSize=9;" edge="1" parent="1" source="1yVf_4KeCka6JtIryi8p-8">
          <mxGeometry width="160" relative="1" as="geometry">
            <mxPoint x="300" y="200" as="sourcePoint" />
            <mxPoint x="345.0000000000002" y="210" as="targetPoint" />
            <Array as="points">
              <mxPoint x="345" y="145" />
            </Array>
          </mxGeometry>
        </mxCell>
        <mxCell id="1yVf_4KeCka6JtIryi8p-11" value="" style="endArrow=open;endFill=1;endSize=12;html=1;rounded=0;fontSize=9;exitX=1;exitY=0.5;exitDx=0;exitDy=0;entryX=0.009;entryY=0.601;entryDx=0;entryDy=0;entryPerimeter=0;" edge="1" parent="1" target="1yVf_4KeCka6JtIryi8p-20">
          <mxGeometry width="160" relative="1" as="geometry">
            <mxPoint x="405.0000000000002" y="227.5" as="sourcePoint" />
            <mxPoint x="490" y="161" as="targetPoint" />
            <Array as="points">
              <mxPoint x="440" y="228" />
              <mxPoint x="440" y="160" />
            </Array>
          </mxGeometry>
        </mxCell>
        <mxCell id="1yVf_4KeCka6JtIryi8p-12" value="" style="rhombus;whiteSpace=wrap;html=1;fontSize=9;strokeColor=#000000;" vertex="1" parent="1">
          <mxGeometry x="550" y="220" width="60" height="30" as="geometry" />
        </mxCell>
        <mxCell id="1yVf_4KeCka6JtIryi8p-14" value="" style="endArrow=open;endFill=1;endSize=12;html=1;rounded=0;fontSize=9;exitX=0;exitY=0.5;exitDx=0;exitDy=0;entryX=1;entryY=0.75;entryDx=0;entryDy=0;" edge="1" parent="1" source="1yVf_4KeCka6JtIryi8p-12">
          <mxGeometry width="160" relative="1" as="geometry">
            <mxPoint x="415" y="237.5" as="sourcePoint" />
            <mxPoint x="405.0000000000002" y="236.25" as="targetPoint" />
            <Array as="points">
              <mxPoint x="450" y="238" />
            </Array>
          </mxGeometry>
        </mxCell>
        <mxCell id="1yVf_4KeCka6JtIryi8p-15" value="" style="endArrow=open;endFill=1;endSize=12;html=1;rounded=0;fontSize=9;entryX=0.5;entryY=0;entryDx=0;entryDy=0;" edge="1" parent="1" source="1yVf_4KeCka6JtIryi8p-12">
          <mxGeometry width="160" relative="1" as="geometry">
            <mxPoint x="560" y="245" as="sourcePoint" />
            <mxPoint x="580.0000000000002" y="290" as="targetPoint" />
            <Array as="points" />
          </mxGeometry>
        </mxCell>
        <mxCell id="1yVf_4KeCka6JtIryi8p-16" value="" style="endArrow=open;endFill=1;endSize=12;html=1;rounded=0;fontSize=9;entryX=0.5;entryY=0;entryDx=0;entryDy=0;" edge="1" parent="1">
          <mxGeometry width="160" relative="1" as="geometry">
            <mxPoint x="579.5200000000002" y="180" as="sourcePoint" />
            <mxPoint x="579.5200000000002" y="220" as="targetPoint" />
            <Array as="points" />
          </mxGeometry>
        </mxCell>
        <mxCell id="1yVf_4KeCka6JtIryi8p-17" value="&lt;font style=&quot;font-size: 8px&quot;&gt;Ya&lt;/font&gt;" style="text;html=1;strokeColor=none;fillColor=none;align=center;verticalAlign=middle;whiteSpace=wrap;rounded=0;" vertex="1" parent="1">
          <mxGeometry x="580" y="250" width="70" height="30" as="geometry" />
        </mxCell>
        <mxCell id="1yVf_4KeCka6JtIryi8p-18" value="&lt;span style=&quot;font-size: 8px&quot;&gt;Tidak&lt;/span&gt;" style="text;html=1;strokeColor=none;fillColor=none;align=center;verticalAlign=middle;whiteSpace=wrap;rounded=0;" vertex="1" parent="1">
          <mxGeometry x="440" y="210" width="70" height="30" as="geometry" />
        </mxCell>
        <mxCell id="1yVf_4KeCka6JtIryi8p-19" value="Login" style="rounded=1;whiteSpace=wrap;html=1;fontSize=8;" vertex="1" parent="1">
          <mxGeometry x="315" y="210" width="90" height="45" as="geometry" />
        </mxCell>
        <mxCell id="1yVf_4KeCka6JtIryi8p-20" value="Verifikasi" style="rounded=1;whiteSpace=wrap;html=1;fontSize=8;" vertex="1" parent="1">
          <mxGeometry x="530" y="135" width="95" height="45" as="geometry" />
        </mxCell>
        <mxCell id="1yVf_4KeCka6JtIryi8p-21" value="Menampilkan menu dashboard admin" style="rounded=1;whiteSpace=wrap;html=1;fontSize=8;" vertex="1" parent="1">
          <mxGeometry x="521.25" y="290" width="117.5" height="45" as="geometry" />
        </mxCell>
        <mxCell id="1yVf_4KeCka6JtIryi8p-22" value="pilih menu statistik" style="rounded=1;whiteSpace=wrap;html=1;fontSize=8;" vertex="1" parent="1">
          <mxGeometry x="300" y="290" width="117.5" height="45" as="geometry" />
        </mxCell>
        <mxCell id="1yVf_4KeCka6JtIryi8p-23" value="" style="endArrow=open;endFill=1;endSize=12;html=1;rounded=0;fontSize=9;" edge="1" parent="1" source="1yVf_4KeCka6JtIryi8p-21" target="1yVf_4KeCka6JtIryi8p-22">
          <mxGeometry width="160" relative="1" as="geometry">
            <mxPoint x="560" y="245" as="sourcePoint" />
            <mxPoint x="415" y="246.25" as="targetPoint" />
            <Array as="points" />
          </mxGeometry>
        </mxCell>
        <mxCell id="1yVf_4KeCka6JtIryi8p-24" value="Menampilkan menu statistik" style="rounded=1;whiteSpace=wrap;html=1;fontSize=8;" vertex="1" parent="1">
          <mxGeometry x="521.25" y="370" width="117.5" height="45" as="geometry" />
        </mxCell>
        <mxCell id="1yVf_4KeCka6JtIryi8p-25" value="" style="endArrow=open;endFill=1;endSize=12;html=1;rounded=0;fontSize=9;" edge="1" parent="1" source="1yVf_4KeCka6JtIryi8p-22" target="1yVf_4KeCka6JtIryi8p-24">
          <mxGeometry width="160" relative="1" as="geometry">
            <mxPoint x="531.25" y="322.5" as="sourcePoint" />
            <mxPoint x="427.5" y="322.5" as="targetPoint" />
            <Array as="points">
              <mxPoint x="359" y="390" />
            </Array>
          </mxGeometry>
        </mxCell>
        <mxCell id="1yVf_4KeCka6JtIryi8p-26" value="pilih statistik jumlah produk yang terjual" style="rounded=1;whiteSpace=wrap;html=1;fontSize=8;" vertex="1" parent="1">
          <mxGeometry x="300" y="430" width="117.5" height="45" as="geometry" />
        </mxCell>
        <mxCell id="1yVf_4KeCka6JtIryi8p-27" value="" style="endArrow=open;endFill=1;endSize=12;html=1;rounded=0;fontSize=9;entryX=1;entryY=0.5;entryDx=0;entryDy=0;" edge="1" parent="1" source="1yVf_4KeCka6JtIryi8p-24" target="1yVf_4KeCka6JtIryi8p-26">
          <mxGeometry width="160" relative="1" as="geometry">
            <mxPoint x="531.25" y="322.5" as="sourcePoint" />
            <mxPoint x="427.5" y="322.5" as="targetPoint" />
            <Array as="points">
              <mxPoint x="580" y="453" />
            </Array>
          </mxGeometry>
        </mxCell>
        <mxCell id="1yVf_4KeCka6JtIryi8p-28" value="" style="endArrow=open;endFill=1;endSize=12;html=1;rounded=0;fontSize=9;" edge="1" parent="1" source="1yVf_4KeCka6JtIryi8p-26" target="1yVf_4KeCka6JtIryi8p-4">
          <mxGeometry width="160" relative="1" as="geometry">
            <mxPoint x="590" y="425" as="sourcePoint" />
            <mxPoint x="427.5" y="462.5" as="targetPoint" />
            <Array as="points">
              <mxPoint x="359" y="493" />
            </Array>
          </mxGeometry>
        </mxCell>
      </root>
    </mxGraphModel>
  </diagram>
</mxfile>
